<?xml version="1.0" ?><svg enable-background="new 0 0 24 24" id="Layer_1" version="1.1" viewBox="0 0 24 24" xml:space="preserve" xmlns="http://www.w3.org/2000/svg" xmlns:xlink="http://www.w3.org/1999/xlink"><path d="M22,0H2C0.8969727,0,0,0.8969727,0,2v20c0,1.1030273,0.8969727,2,2,2h20c1.1030273,0,2-0.8969727,2-2V2  C24,0.8969727,23.1030273,0,22,0z M10,2.5C10,2.2236328,10.2236328,2,10.5,2h3C13.7763672,2,14,2.2236328,14,2.5v2  C14,4.7763672,13.7763672,5,13.5,5h-1v0.5C12.5,5.7763672,12.2763672,6,12,6s-0.5-0.2236328-0.5-0.5V5h-1  C10.2236328,5,10,4.7763672,10,4.5V2.5z M11.5,9C11.2236328,9,11,8.7763672,11,8.5v-1C11,7.2236328,11.2236328,7,11.5,7  S12,7.2236328,12,7.5v1C12,8.7763672,11.7763672,9,11.5,9z M12,10.5v1c0,0.2763672-0.2236328,0.5-0.5,0.5S11,11.7763672,11,11.5v-1  c0-0.2763672,0.2236328-0.5,0.5-0.5S12,10.2236328,12,10.5z M4.5,7.5V7h-1C3.2236328,7,3,6.7763672,3,6.5v-2  C3,4.2236328,3.2236328,4,3.5,4h3C6.7763672,4,7,4.2236328,7,4.5v2C7,6.7763672,6.7763672,7,6.5,7h-1v0.5  C5.5,7.7763672,5.2763672,8,5,8S4.5,7.7763672,4.5,7.5z M18,21.5c0,0.2763672-0.2236328,0.5-0.5,0.5h-4  c-0.2763672,0-0.5-0.2236328-0.5-0.5V21h-3v0.5c0,0.2763672-0.2236328,0.5-0.5,0.5h-4C5.2236328,22,5,21.7763672,5,21.5v-2  C5,19.2236328,5.2236328,19,5.5,19H7v-1.5C7,17.2236328,7.2236328,17,7.5,17v-0.5C7.5,16.2236328,7.7236328,16,8,16  s0.5,0.2236328,0.5,0.5V17H9v-1.5C9,15.2236328,9.2236328,15,9.5,15H11v-1.5c0-0.2763672,0.2236328-0.5,0.5-0.5  s0.5,0.2236328,0.5,0.5V15h1.5c0.2763672,0,0.5,0.2236328,0.5,0.5V17h0.5v-0.5c0-0.2763672,0.2236328-0.5,0.5-0.5  s0.5,0.2236328,0.5,0.5V17c0.2763672,0,0.5,0.2236328,0.5,0.5V19h1.5c0.2763672,0,0.5,0.2236328,0.5,0.5V21.5z M21,8.5  C21,8.7763672,20.7763672,9,20.5,9h-1v0.5c0,0.2763672-0.2236328,0.5-0.5,0.5s-0.5-0.2236328-0.5-0.5V9h-1  C17.2236328,9,17,8.7763672,17,8.5v-2C17,6.2236328,17.2236328,6,17.5,6h3C20.7763672,6,21,6.2236328,21,6.5V8.5z" fill="#303C42"/><g/><g/><g/><g/><g/><g/><g/><g/><g/><g/><g/><g/><g/><g/><g/></svg>